<svg id="Capa_1" enable-background="new 0 0 510 510" height="512" viewBox="0 0 510 510" width="512" xmlns="http://www.w3.org/2000/svg"><g id="XMLID_925_"><path id="XMLID_942_" d="m254.9 1.2c-11.1 10.6-80.8 77-92 87.7l46 16.2 46-16.2 15.1-43.9z" fill="#fec258"/><path id="XMLID_941_" d="m255 1.2v87.6l46.6 16.2 46.6-16.2c-11.3-10.6-81.8-76.9-93.2-87.6z" fill="#fd996b"/><path id="XMLID_1026_" d="m405 291.4 52.5-21.4 52.5-36.2v-.1-.1c-12.7-11.3-92.2-82.1-105-93.4 0 25.3-15 75.6-15 75.6s15 50.4 15 75.6z" fill="#fd996b"/><path id="XMLID_1036_" d="m105 140.2c-12.7 11.3-91.9 81.8-104.7 93.1l52.4 36.7 52.3 21.1c0-12.5 15-75.4 15-75.4s-15-57.5-15-75.5z" fill="#fec258"/><path id="XMLID_1025_" d="m105 88.8v202.3l75 53.9 75 28.8 15-142.5-15-142.5c-56.5 0-97.4 0-150 0z" fill="#e6f2ff"/><path id="XMLID_1024_" d="m405 88.8c-52.8 0-93.3 0-150 0v285l75-28.8 75-53.6c0-28.4 0-173.9 0-202.6z" fill="#cdf"/><path id="XMLID_1030_" d="m.3 233.3-.2.1-.1.2v275.2l105-86.1 82.4-86.1c-10.3-5.8-176.7-97.5-187.1-103.3z" fill="#fee05b"/><path id="XMLID_1021_" d="m510 508.8c0-15.3 0-259.8 0-275-10.4 5.7-176.9 97.2-187.3 102.9l82.3 86.1z" fill="#fd676a"/><path id="XMLID_1014_" d="m187.4 336.6c-5.2 4.8-182.1 167.4-187.4 172.2h255l15-67.5-15-67.5c-8.2-4.5-59.3-32.7-67.6-37.2z" fill="#fec258"/><path id="XMLID_1007_" d="m322.7 336.6c-8.2 4.5-59.5 32.7-67.7 37.2v135h255c-5.3-4.8-182-167.3-187.3-172.2z" fill="#fd996b"/><path id="XMLID_978_" d="m165 148.8v30h90l15-15-15-15c-10.9 0-79 0-90 0z" fill="#8ee26b"/><path id="XMLID_960_" d="m345 148.8c-10.9 0-79 0-90 0v30h90c0-10.5 0-19.5 0-30z" fill="#00cb75"/><path id="XMLID_959_" d="m165 208.8v30h90l15-15-15-15c-10.9 0-79 0-90 0z" fill="#7ed8f6"/><path id="XMLID_958_" d="m345 208.8c-10.9 0-79 0-90 0v30h90c0-10.5 0-19.5 0-30z" fill="#6aa9ff"/><path id="XMLID_957_" d="m225 268.8v30h30l15-15-15-15c-10.5 0-19.5 0-30 0z" fill="#7ed8f6"/><path id="XMLID_1_" d="m254.9 268.8v30h30c0-10.5 0-19.5 0-30-10.5 0-19.5 0-30 0z" fill="#6aa9ff"/></g></svg>